PathFileType	4	(X/Y/Z)	D:\Vicon data\Senior Design EMG regression\Subject 1- Steven\Session 1\steven - static trial01.trc
DataRate	CameraRate	NumFrames	NumMarkers	Units	OrigDataRate	OrigDataStartFrame	OrigNumFrames
100.0	100.0	4	60	mm	100.0	437	582	
Frame#	Time	HEAD			C7			CLAV			STUR			LSHO			LHAR2			LHME			LRAH			LRAD			LULN			LMCM			RSHO			RHAR2			RHME			RRAH			RRAD			RULN			RMCM			LASI			RASI			LPSI			RPSI			LLAT			LLFC			LKNE			LLAN			LHEE			LTOE			RLAT			RLFC			RKNE			RLAN			RHEE			RTOE			RSMT			RMAN			LSMT			LMAN			RSAT1			RSAT			RMFC			LSAT1			LSAT			LMFC			BARB			RHAR1			RHGT			RHHB			RHHF			RHLE			RMCR			RMCA			RMCI			LHHF			LHHB			LHGT			LHAR1			LHLE			LMCR			LMCI			
		X1	Y1	Z1	X2	Y2	Z2	X3	Y3	Z3	X4	Y4	Z4	X5	Y5	Z5	X6	Y6	Z6	X7	Y7	Z7	X8	Y8	Z8	X9	Y9	Z9	X10	Y10	Z10	X11	Y11	Z11	X12	Y12	Z12	X13	Y13	Z13	X14	Y14	Z14	X15	Y15	Z15	X16	Y16	Z16	X17	Y17	Z17	X18	Y18	Z18	X19	Y19	Z19	X20	Y20	Z20	X21	Y21	Z21	X22	Y22	Z22	X23	Y23	Z23	X24	Y24	Z24	X25	Y25	Z25	X26	Y26	Z26	X27	Y27	Z27	X28	Y28	Z28	X29	Y29	Z29	X30	Y30	Z30	X31	Y31	Z31	X32	Y32	Z32	X33	Y33	Z33	X34	Y34	Z34	X35	Y35	Z35	X36	Y36	Z36	X37	Y37	Z37	X38	Y38	Z38	X39	Y39	Z39	X40	Y40	Z40	X41	Y41	Z41	X42	Y42	Z42	X43	Y43	Z43	X44	Y44	Z44	X45	Y45	Z45	X46	Y46	Z46	X47	Y47	Z47	X48	Y48	Z48	X49	Y49	Z49	X50	Y50	Z50	X51	Y51	Z51	X52	Y52	Z52	X53	Y53	Z53	X54	Y54	Z54	X55	Y55	Z55	X56	Y56	Z56	X57	Y57	Z57	X58	Y58	Z58	X59	Y59	Z59	X60	Y60	Z60	
437	4.36	-73.111023	1645.5712	-327.11465	-65.59713	1452.1599	-134.34007	-67.08287	1399.2531	-272.42105	-74.448235	1253.4983	-313.59201	-182.13463	1469.1594	-181.85716	-358.07239	1448.9924	-194.38249	-477.50485	1352.1129	-181.13979	-454.73605	1426.5658	-271.17474	-477.74753	1403.23	-411.65607	-536.39392	1429.8109	-404.314	-511.50513	1418.7852	-500.61649	53.765045	1458.8269	-171.8501	213.37967	1439.2694	-187.01247	347.59097	1337.0002	-182.61169	300.25183	1416.8073	-263.9501	292.51807	1393.0486	-409.86124	353.59329	1428.8491	-409.01047	320.91461	1427.7336	-500.64862	-193.77065	965.53851	-304.84717	71.505569	994.35077	-281.76144	-132.60988	986.75073	-156.6812	-21.847237	987.53369	-144.14149	-215.8485	607.40753	-276.5289	-203.33595	501.84357	-240.662	-161.65002	474.4343	-278.99527	-181.35477	93.447868	-174.11903	-134.58031	68.527504	-111.92576	-145.18655	49.428955	-372.26971	115.57625	683.85071	-270.96735	92.984039	502.52469	-250.03659	41.171127	477.68665	-295.56577	88.356911	104.4785	-188.87917	40.076584	63.429691	-119.33944	52.215851	47.290894	-383.0137	118.50471	40.29969	-336.82294	3.0986509	121.35102	-195.66483	-210.36748	43.695011	-323.35208	-101.59941	127.03508	-197.36977	87.506866	767.07013	-334.33398	43.561932	640.3927	-324.88974	-11.075322	490.89172	-240.56247	-207.79556	766.57776	-331.97424	-158.70599	631.76831	-323.40549	-107.59544	488.14484	-226.03641	-8.3086157	1284.9183	-84.455956	268.05005	1421.3881	-147.19458	134.96582	1457.5288	-161.1756	81.727509	1441.2682	-120.727	76.849861	1446.151	-226.66478	358.64337	1418.6593	-175.80933	345.23709	1423.6855	-493.9837	357.11169	1417.6479	-454.02582	299.21298	1420.3096	-505.41132	-210.41995	1456.8051	-229.98131	-216.5721	1451.6166	-136.36674	-301.07996	1464.3215	-154.57925	-413.11636	1437.9562	-149.07481	-495.44202	1432.5481	-174.55664	-537.35876	1414.7036	-494.1199	-492.92831	1416.5026	-503.95221
438	4.37	-73.123619	1645.5355	-327.10806	-65.621346	1452.1643	-134.37334	-67.089043	1399.2288	-272.45697	-73.950401	1253.588	-314.38226	-182.15729	1469.1385	-181.90115	-358.08786	1448.9832	-194.43654	-477.52179	1352.1068	-181.1532	-454.79199	1426.5104	-271.17679	-477.74222	1403.174	-411.68951	-536.42224	1429.7874	-404.35965	-511.50476	1418.7329	-500.65924	53.749752	1458.7927	-171.90588	213.37061	1439.2603	-187.05725	347.61462	1337.0271	-182.66776	300.21991	1416.8105	-263.99744	291.13437	1394.5137	-406.24298	353.57111	1428.8396	-409.06015	320.88419	1427.7366	-500.6662	-193.76637	965.45789	-304.88278	71.540321	994.32324	-281.82977	-132.63803	986.75714	-156.74332	-21.876823	987.52814	-144.21941	-215.83368	607.37378	-276.59921	-203.33571	501.82361	-240.69485	-161.61925	474.40479	-279.05875	-181.3877	93.451675	-174.13568	-134.5956	68.529373	-111.92625	-145.20171	49.377724	-372.29443	115.57405	683.83704	-271.01709	93.231522	502.61246	-250.09203	41.214546	477.65012	-295.59348	88.326859	104.44901	-188.89253	40.061817	63.450375	-119.33548	52.186596	47.256027	-383.03253	118.47724	40.281273	-336.84772	2.9520547	121.34432	-195.58145	-210.31201	43.594078	-323.34039	-101.59232	127.01186	-197.41641	87.522232	767.0542	-334.39694	43.564373	640.33685	-324.90823	-11.084869	490.80231	-240.56253	-207.77422	766.52588	-332.00665	-158.71132	631.72705	-323.45023	-107.58707	488.11972	-226.06909	-8.327281	1284.9421	-84.486053	268.0607	1421.3754	-147.26379	134.97284	1457.5411	-161.22525	81.720772	1441.2717	-120.75668	76.849892	1446.139	-226.69862	358.63873	1418.6542	-175.84776	345.22394	1423.6978	-494.04709	357.09665	1417.642	-454.07465	299.2204	1420.3409	-505.45627	-210.41917	1456.7689	-230.01997	-216.58606	1451.6389	-136.40477	-301.11096	1464.2882	-154.64137	-413.13754	1437.9586	-149.12579	-495.45706	1432.5463	-174.59033	-537.37921	1414.6459	-494.13489	-492.91565	1416.4504	-503.93564
439	4.38	-73.130638	1645.5287	-327.03012	-65.625343	1452.1825	-134.37918	-67.086655	1399.2566	-272.45984	-73.942734	1253.641	-314.39929	-182.15799	1469.1544	-181.9193	-358.08899	1448.9968	-194.4492	-477.53387	1352.1351	-181.16776	-454.84576	1426.5458	-271.18918	-477.75317	1403.1935	-411.71631	-536.42633	1429.7958	-404.3728	-511.49625	1418.7635	-500.65308	53.746708	1458.8275	-171.89009	213.3584	1439.285	-187.09692	347.63803	1337.0776	-182.69885	300.21323	1416.8208	-264.00229	292.49118	1393.0139	-409.69379	353.56589	1428.896	-409.08362	320.85355	1427.7791	-500.65295	-193.76701	965.50549	-304.92389	71.53141	994.35742	-281.85242	-132.62103	986.78333	-156.75827	-21.846586	987.54285	-144.23801	-215.82141	607.3891	-276.60962	-203.33417	501.83969	-240.67755	-161.64575	474.42023	-279.05167	-181.37465	93.465401	-174.15614	-134.59245	68.515358	-111.93269	-145.20824	49.408028	-372.2742	115.56509	683.83734	-271.02228	92.990234	502.54816	-250.04294	41.21912	477.67197	-295.63425	88.328316	104.46803	-188.89052	40.059158	63.462242	-119.33174	52.212238	47.285473	-383.03711	118.47301	40.308342	-336.84525	2.9318697	121.38055	-195.5722	-210.35455	43.68581	-323.35056	-101.58128	127.03785	-197.39856	87.528709	767.05554	-334.40909	43.594646	640.36499	-324.9357	-11.087384	490.88699	-240.60185	-207.77167	766.54047	-332.03113	-158.69031	631.75842	-323.4693	-107.56386	488.16949	-226.08212	-8.2928724	1284.9332	-84.505524	268.05685	1421.4086	-147.28093	134.9807	1457.5693	-161.25607	81.722191	1441.2721	-120.77437	76.850281	1446.1538	-226.72742	358.6413	1418.6683	-175.87061	345.2081	1423.7542	-494.05469	357.10022	1417.7101	-454.10101	299.15768	1420.396	-505.44412	-210.42674	1456.7877	-230.04826	-216.59743	1451.6449	-136.42101	-301.10159	1464.3184	-154.66617	-413.13632	1437.9862	-149.15883	-495.4566	1432.5638	-174.60217	-537.39667	1414.6528	-494.13504	-492.96255	1416.653	-504.18292
440	4.39	-73.127663	1645.5978	-327.15546	-65.608894	1452.1713	-134.41063	-67.092674	1399.2925	-272.49899	-74.462013	1253.5269	-313.63818	-182.13501	1469.1608	-181.94615	-358.06668	1449.0005	-194.48376	-477.55151	1352.1609	-181.192	-454.89676	1426.4012	-271.11469	-477.77289	1403.2153	-411.73499	-536.43341	1429.797	-404.39368	-511.51721	1418.7202	-500.66714	53.76292	1458.8168	-171.92674	213.37383	1439.2979	-187.10515	347.61035	1337.0948	-182.72487	300.21225	1416.8636	-264.01971	292.42642	1393.0936	-409.57721	353.5658	1428.9514	-409.10599	320.85654	1427.8405	-500.70059	-193.77528	965.52063	-304.94733	71.540138	994.35553	-281.87338	-132.59975	986.77222	-156.8031	-21.838388	987.56311	-144.29906	-215.83763	607.41809	-276.61227	-203.30127	501.86194	-240.69623	-161.61761	474.46329	-279.0571	-181.34927	93.501434	-174.13419	-134.57658	68.534027	-111.9189	-145.19237	49.439613	-372.26007	115.58314	683.89148	-271.00366	93.238831	502.65765	-250.10559	41.271378	477.76666	-295.64606	88.318924	104.4819	-188.86617	40.073658	63.460255	-119.31281	52.198711	47.294373	-383.01071	118.49039	40.339668	-336.82684	2.9402721	121.37686	-195.5847	-210.31395	43.647446	-323.33371	-101.58082	127.04289	-197.36957	87.531242	767.09229	-334.41425	43.593727	640.41351	-324.94534	-11.081868	490.86652	-240.53346	-207.76979	766.57758	-332.06949	-158.69725	631.7832	-323.48175	-107.57004	488.15414	-226.06343	-8.2818222	1284.9171	-84.534775	268.06418	1421.4314	-147.31752	134.98993	1457.5596	-161.25635	81.724884	1441.274	-120.79646	76.848045	1446.1746	-226.73248	358.65338	1418.6899	-175.89644	345.2002	1423.7815	-494.08484	357.05896	1417.7466	-454.11566	299.18158	1420.4497	-505.49634	-210.42134	1456.8259	-230.06349	-216.49417	1451.7593	-136.36188	-301.07504	1464.3406	-154.68561	-413.11157	1438.0048	-149.17229	-495.46503	1432.5916	-174.60237	-537.39429	1414.6481	-494.146	-492.97293	1416.6267	-504.13306
